<svg id="color" enable-background="new 0 0 24 24" height="512" viewBox="0 0 24 24" width="512" xmlns="http://www.w3.org/2000/svg"><path d="m22 2.75c0-1.519-1.231-2.75-2.75-2.75h-14.5c-1.519 0-2.75 1.231-2.75 2.75v18.5c0 1.519 1.231 2.75 2.75 2.75h14.5c1.518 0 2.75-1.231 2.75-2.75z" fill="#eceff1"/><path d="m12 0h-7.25c-1.519 0-2.75 1.231-2.75 2.75v18.5c0 1.519 1.231 2.75 2.75 2.75h7.25z" fill="#cdd0d2"/><path d="m16 8.5c0 3.038-2.463 5.5-5.5 5.5s-5.5-2.462-5.5-5.5 2.463-5.5 5.5-5.5 5.5 2.462 5.5 5.5z" fill="#ffc107"/><path d="m10.5 3c-3.037 0-5.5 2.462-5.5 5.5s2.463 5.5 5.5 5.5z" fill="#dea806"/><path d="m16.5 17h-5c-1.381 0-2.5-1.119-2.5-2.5v-5c0-1.381 1.119-2.5 2.5-2.5h5c1.381 0 2.5 1.119 2.5 2.5v5c0 1.381-1.119 2.5-2.5 2.5z" fill="#4caf50"/><path d="m14 7h-2.5c-1.381 0-2.5 1.119-2.5 2.5v5c0 1.381 1.119 2.5 2.5 2.5h2.5z" fill="#429846"/><path d="m13.779 21h-6.558c-.601 0-1.146-.305-1.463-.815-.315-.511-.344-1.136-.075-1.674l3.279-6.56c.293-.587.883-.951 1.538-.951s1.245.364 1.538.951l3.279 6.56c.269.538.24 1.163-.075 1.674-.316.51-.862.815-1.463.815z" fill="#2196f3"/><path d="m10.5 11c-.655 0-1.245.364-1.538.951l-3.279 6.56c-.269.538-.24 1.163.075 1.674.316.51.862.815 1.463.815h3.279z" fill="#1d83d4"/></svg>