<?xml version="1.0" encoding="iso-8859-1"?>
<!-- Generator: Adobe Illustrator 19.0.0, SVG Export Plug-In . SVG Version: 6.00 Build 0)  -->
<svg version="1.1" id="Capa_1" xmlns="http://www.w3.org/2000/svg" xmlns:xlink="http://www.w3.org/1999/xlink" x="0px" y="0px"
	 viewBox="0 0 512 512" style="enable-background:new 0 0 512 512;" xml:space="preserve">
<linearGradient id="SVGID_1_" gradientUnits="userSpaceOnUse" x1="0.0851" y1="258" x2="511.9149" y2="258" gradientTransform="matrix(1 0 0 -1 0 514)">
	<stop  offset="0" style="stop-color:#00F2FE"/>
	<stop  offset="0.021" style="stop-color:#03EFFE"/>
	<stop  offset="0.293" style="stop-color:#24D2FE"/>
	<stop  offset="0.554" style="stop-color:#3CBDFE"/>
	<stop  offset="0.796" style="stop-color:#4AB0FE"/>
	<stop  offset="1" style="stop-color:#4FACFE"/>
</linearGradient>
<path style="fill:url(#SVGID_1_);" d="M511.86,380.523c-0.654-8.833-3.018-21.102-9.911-34.479c-0.554-1.49-1.273-2.942-2.209-4.314
	l-1.24-1.818c-1.583-2.595-3.337-5.217-5.297-7.851c-0.105-0.142-0.225-0.266-0.333-0.404L272.689,8.849
	c-0.015-0.023-0.031-0.045-0.046-0.068l-0.035-0.051c-0.305-0.447-0.631-0.873-0.968-1.29c-0.087-0.107-0.175-0.214-0.264-0.319
	c-0.364-0.433-0.74-0.853-1.137-1.251c-0.02-0.02-0.041-0.038-0.061-0.057c-0.388-0.386-0.794-0.75-1.21-1.1
	c-0.096-0.081-0.191-0.163-0.29-0.243c-0.425-0.345-0.862-0.674-1.313-0.982c-0.106-0.073-0.216-0.14-0.324-0.211
	c-0.38-0.249-0.769-0.485-1.165-0.708c-0.126-0.071-0.25-0.146-0.378-0.215c-0.455-0.242-0.919-0.464-1.392-0.67
	c-0.174-0.076-0.351-0.149-0.527-0.22c-0.452-0.183-0.909-0.353-1.374-0.503c-0.152-0.049-0.307-0.092-0.461-0.137
	c-0.438-0.129-0.881-0.242-1.329-0.342c-0.16-0.036-0.319-0.073-0.48-0.105c-0.542-0.106-1.089-0.189-1.642-0.25
	c-0.131-0.014-0.264-0.025-0.396-0.037c-0.6-0.053-1.203-0.09-1.812-0.09c-0.609,0-1.212,0.037-1.812,0.092
	c-0.132,0.012-0.264,0.022-0.396,0.037c-0.552,0.061-1.1,0.144-1.642,0.25c-0.162,0.031-0.32,0.069-0.48,0.105
	c-0.448,0.099-0.891,0.212-1.329,0.342c-0.154,0.045-0.309,0.088-0.461,0.137c-0.465,0.149-0.922,0.32-1.374,0.503
	c-0.177,0.072-0.354,0.144-0.528,0.22c-0.472,0.207-0.937,0.428-1.392,0.67c-0.128,0.068-0.252,0.144-0.378,0.215
	c-0.396,0.222-0.784,0.458-1.164,0.707c-0.108,0.071-0.218,0.138-0.325,0.211c-0.451,0.308-0.887,0.636-1.312,0.981
	c-0.098,0.08-0.194,0.162-0.291,0.243c-0.416,0.351-0.822,0.714-1.21,1.1c-0.02,0.02-0.041,0.038-0.061,0.057
	c-0.396,0.397-0.772,0.818-1.136,1.25c-0.089,0.106-0.177,0.212-0.265,0.32c-0.336,0.417-0.663,0.843-0.967,1.289l-0.035,0.051
	c-0.015,0.023-0.031,0.045-0.046,0.068L20.188,330.356c-2.791,3.589-5.21,7.168-7.301,10.704l-0.457,0.67
	c-0.811,1.189-1.469,2.435-1.992,3.715C3.09,359.492,0.702,372.564,0.2,382.323c-0.074,0.697-0.115,1.403-0.115,2.119
	c0,0.343,0.007,0.703,0.012,1.058c-0.004,0.354-0.012,0.715-0.012,1.058c0,0.716,0.041,1.423,0.115,2.119
	c1.005,19.52,9.536,52.319,50.261,79.574C93.838,497.281,163.02,512,256.085,512c86.373,0,152.303-12.704,195.956-37.759
	c9.579-5.498,12.889-17.722,7.39-27.302s-17.721-12.891-27.302-7.39C394.612,461.082,335.383,472,256.085,472
	c-105.879,0-158.161-20.116-183.376-36.991c-27.48-18.391-32.329-38.508-32.61-49.509c0.151-5.893,1.623-14.405,7.172-23.864
	l4.728-6.932c4.809-6.158,11.476-12.532,20.71-18.712c23.573-15.776,70.81-34.384,163.376-36.74V382c0,11.046,8.954,20,20,20h235.83
	c5.561,0,10.87-2.315,14.654-6.39C510.354,391.535,512.271,386.069,511.86,380.523z M104.417,277.855l131.668-193.04v174.43
	C183.926,260.497,139.901,266.721,104.417,277.855z M276.085,362v-62.747c22.507,0.569,43.427,2.11,62.385,4.61
	c10.945,1.444,20.999-6.262,22.443-17.213c1.444-10.95-6.262-20.999-17.213-22.443c-20.631-2.721-43.308-4.381-67.615-4.966V84.815
	l188.702,276.656c0.104,0.176,0.214,0.354,0.315,0.529H276.085z"/>
<g>
</g>
<g>
</g>
<g>
</g>
<g>
</g>
<g>
</g>
<g>
</g>
<g>
</g>
<g>
</g>
<g>
</g>
<g>
</g>
<g>
</g>
<g>
</g>
<g>
</g>
<g>
</g>
<g>
</g>
</svg>
