<svg height="512" viewBox="0 0 60 60" width="512" xmlns="http://www.w3.org/2000/svg"><g id="Page-1" fill="none" fill-rule="evenodd"><g id="029---Treasure-Map" fill-rule="nonzero"><path id="Shape" d="m53.54 7.56c-2.1398892-4.72433878-7.2890004-7.31215494-12.3569833-6.2103147s-8.6778313 5.59395923-8.6630167 10.7803147c0 .38.01.75.03 1.12.2331997 3.8027205 1.4270894 7.4841671 3.47 10.7.09.15.18.28.28.43 1.0113022 1.5571343 2.1735847 3.0108248 3.47 4.34.9975153 1.0544058 2.0776128 2.0274967 3.23 2.91.33.24.52.37.52.37 1.3496318-.9625621 2.6022214-2.0543916 3.74-3.26 1.2991527-1.3365948 2.4646833-2.7968573 3.48-4.36.09-.15.19-.28.27-.43 2.1326831-3.3371853 3.3373628-7.1824951 3.49-11.14.02-.22.02-.45.02-.68.0029229-1.5757843-.3312173-3.1339688-.98-4.57zm-10.09 11.44c-2.8374334.0283757-5.4112926-1.6590108-6.5168497-4.2723567-1.1055572-2.6133459-.5240688-5.63557946 1.4722919-7.65210548 1.9963608-2.01652601 5.0125978-2.62835843 7.6369225-1.54912124 2.6243248 1.0792372 4.3374934 3.63600815 4.3376353 6.47358342.0103696 1.8475599-.7141867 3.6234513-2.014048 4.9364425s-3.0683812 2.0553586-4.915952 2.0635575z" fill="#f44335"/><path id="Shape" d="m53.54 7.56c-1.9520121-4.49677946-6.6658068-7.13724102-11.52-6.453 5.4594683.81474026 9.5000344 5.50307282 9.5 11.023 0 .23 0 .46-.02.68-.1526372 3.9575049-1.3573169 7.8028147-3.49 11.14-.08.15-.18.28-.27.43-1.0153167 1.5631427-2.1808473 3.0234052-3.48 4.36-.7097068.7384093-1.4573859 1.4393585-2.24 2.1.384.324.731.6.98.792.33.24.52.37.52.37 1.3496318-.9625621 2.6022214-2.0543916 3.74-3.26 1.2991527-1.3365948 2.4646833-2.7968573 3.48-4.36.09-.15.19-.28.27-.43 2.1330216-3.3377652 3.3377153-7.1838101 3.49-11.142.02-.22.02-.45.02-.68.0029229-1.5757843-.3312173-3.1339688-.98-4.57z" fill="#c81e1e"/><path id="Shape" d="m50.38 12c-.0385675 3.8179833-3.1581038 6.8854906-6.9761957 6.8598437-3.818092-.025647-6.8961384-3.1347848-6.8834123-6.9529417.0127262-3.8181569 3.1114299-6.90670721 6.929608-6.906902 3.8462207.0203832 6.9482723 3.15376867 6.93 7z" fill="#ffeb3a"/><path id="Shape" d="m43.45 5c-.5046819.00120274-1.0077025.0578764-1.5.169 3.1801565.73485199 5.4325324 3.56704496 5.4325324 6.831 0 3.263955-2.2523759 6.096148-5.4325324 6.831.4922975.1111236.9953181.1677973 1.5.169 3.8659932 0 7-3.1340068 7-7 0-3.86599325-3.1340068-7-7-7z" fill="#fdd834"/><path id="Shape" d="m59 14.99v42.71c-.0002358.3201574-.1537516.6208461-.4129309.8088006-.2591793.1879544-.5926837.2404483-.8970691.1411994l-14.35-4.65c-.1105445-.0319943-.2249247-.0488149-.34-.05v-17.96c.17.01.33.01.5.01 3.59 0 6.5-1.79 6.5-4 0-1.35-1.08-2.54-2.74-3.26 1.2991527-1.3365948 2.4646833-2.7968573 3.48-4.36.09-.15.19-.28.27-.43 2.1326831-3.3371853 3.3373628-7.1824951 3.49-11.14l3.81 1.23c.411264.1340978.6896813.5174261.69.95z" fill="#dfc49c"/><path id="Shape" d="m50 32c0 2.21-2.91 4-6.5 4-.17 0-.33 0-.5-.01-3.36-.16-6-1.88-6-3.99 0-1.36 1.1-2.55 2.77-3.28.9975153 1.0544058 2.0776128 2.0274967 3.23 2.91.33.24.52.37.52.37 1.3496318-.9625621 2.6022214-2.0543916 3.74-3.26 1.66.72 2.74 1.91 2.74 3.26z" fill="#a0522d"/><path id="Shape" d="m47.26 28.74c-.426.442-.83.831-1.212 1.186.5817868.5363013.924631 1.2832119.952 2.074 0 1.892-2.136 3.473-5 3.889.327.048.66.085 1 .1.17.01.33.01.5.01 3.59 0 6.5-1.79 6.5-4 0-1.349-1.08-2.539-2.74-3.259z" fill="#783e22"/><path id="Shape" d="m43 35.99v17.96c-.116416.0112507-.2307814.0381602-.34.08l-12.29 4.9c-.1175839.0472538-.2432805.0710343-.37.0700323v-44.8000323c.1273428-.0025188.2529913-.029686.37-.08l2.18-.87c.2331997 3.8027205 1.4270894 7.4841671 3.47 10.7.09.15.18.28.28.43 1.0113022 1.5571343 2.1735847 3.0108248 3.47 4.34-1.67.73-2.77 1.92-2.77 3.28 0 2.11 2.64 3.83 6 3.99z" fill="#ffe0b2"/><path id="Shape" d="m30 14.2v44.8000323c-.1267195.001002-.2524161-.0227785-.37-.0700323l-12.29-4.9c-.1092186-.0418398-.223584-.0687493-.34-.08v-44.81002576c.1170033-.00089656.2328766.0229597.34.07002576l12.29 4.91c.1170087.050314.2426572.0774812.37.08z" fill="#dfc49c"/><path id="Shape" d="m17 9.14v44.81c-.1150753.0011851-.2294555.0180057-.34.05l-14.35 4.65c-.30438538.0992489-.63788978.046755-.8970691-.1411994-.25917933-.1879545-.41269511-.4886432-.4129309-.8088006v-42.71c.00031865-.4325739.27873603-.8159022.69-.95l14.97-4.85c.1105445-.03199428.2249247-.0488149.34-.05z" fill="#ffe0b2"/><path id="Shape" d="m24.729 47.5 2.084-2.919c.2243173-.2897275.2722155-.6789359.1248386-1.0144062-.1473768-.3354704-.4664249-.5634741-.8315454-.5942533-.3651204-.0307792-.7178357.1405955-.9192932.4466595l-1.687 2.361-1.687-2.361c-.2014575-.306064-.5541728-.4774387-.9192932-.4466595-.3651205.0307792-.6841686.2587829-.8315454.5942533-.1473769.3354703-.0994787.7246787.1248386 1.0144062l2.084 2.919-2.084 2.919c-.2243173.2897275-.2722155.6789359-.1248386 1.0144062.1473768.3354704.4664249.5634741.8315454.5942533.3651204.0307792.7178357-.1405955.9192932-.4466595l1.687-2.361 1.687 2.361c.2014575.306064.5541728.4774387.9192932.4466595.3651205-.0307792.6841686-.2587829.8315454-.5942533.1473769-.3354703.0994787-.7246787-.1248386-1.0144062z" fill="#f44335"/><path id="Shape" d="m10.187 24.581c.2014575.306064.5541728.4774387.9192932.4466595.3651205-.0307792.6841686-.2587829.8315454-.5942533.1473769-.3354703.0994787-.7246787-.1248386-1.0144062l-2.084-2.919 2.084-2.919c.2243173-.2897275.2722155-.6789359.1248386-1.0144062-.1473768-.3354704-.4664249-.5634741-.8315454-.5942533-.3651204-.0307792-.7178357.1405955-.9192932.4466595l-1.687 2.361-1.687-2.361c-.20145749-.306064-.55417278-.4774387-.91929322-.4466595-.36512043.0307792-.68416857.2587829-.83154542.5942533-.14737686.3354703-.09947865.7246787.12483864 1.0144062l2.084 2.919-2.084 2.919c-.22431729.2897275-.2722155.6789359-.12483864 1.0144062.14737685.3354704.46642499.5634741.83154542.5942533.36512044.0307792.71783573-.1405955.91929322-.4466595l1.687-2.361z" fill="#f44335"/><g fill="#91562d"><path id="Shape" d="m10 29c0-.5522847-.44771525-1-1-1s-1 .4477153-1 1v2c0 .5522847.44771525 1 1 1s1-.4477153 1-1z"/><path id="Shape" d="m10 35c0-.5522847-.44771525-1-1-1s-1 .4477153-1 1v2c0 .5522847.44771525 1 1 1s1-.4477153 1-1z"/><path id="Shape" d="m9 40c-.55228475 0-1 .4477153-1 1v2c0 .5522847.44771525 1 1 1s1-.4477153 1-1v-2c0-.5522847-.44771525-1-1-1z"/><path id="Shape" d="m23 29c.5522847 0 1-.4477153 1-1v-2c0-.5522847-.4477153-1-1-1s-1 .4477153-1 1v2c0 .5522847.4477153 1 1 1z"/><path id="Shape" d="m23 35c.5522847 0 1-.4477153 1-1v-2c0-.5522847-.4477153-1-1-1s-1 .4477153-1 1v2c0 .5522847.4477153 1 1 1z"/><path id="Shape" d="m23 41c.5522847 0 1-.4477153 1-1v-2c0-.5522847-.4477153-1-1-1s-1 .4477153-1 1v2c0 .5522847.4477153 1 1 1z"/><path id="Shape" d="m10.684 47.419-.684.228v-.647c0-.5522847-.44771525-1-1-1s-1 .4477153-1 1v2c0 .5522847.44771525 1 1 1h.1c.10738845.0000777.21408836-.0171429.316-.051l1.9-.633c.5246705-.174522.8085219-.7413295.634-1.266-.174522-.5246705-.7413295-.808522-1.266-.634z"/><path id="Shape" d="m16.581 45.419-1.9.632c-.5246705.174522-.8085219.7413295-.634 1.266.174522.5246705.7413295.808522 1.266.634l1.9-.633c.5246705-.1747981.8082981-.7418295.6334999-1.2665-.1747981-.5246705-.7418294-.8082981-1.2664999-.6335z"/><path id="Shape" d="m23 23c.5522847 0 1-.4477153 1-1v-.647l.684.228c.5246705.174522 1.091478-.1093295 1.266-.634s-.1093295-1.091478-.634-1.266l-1.9-.633c-.1020785-.032839-.2087744-.0490459-.316-.048h-.1c-.5522847 0-1 .4477153-1 1v2c0 .5522847.4477153 1 1 1z"/></g><path id="Shape" d="m43.448 20c3.2420905.02918 6.1812056-1.9013476 7.4421713-4.8883139 1.2609658-2.9869662.5944062-6.43965109-1.6878042-8.7425879-2.2822104-2.3029368-5.7287281-3.00068318-8.7269721-1.76677262-2.9982439 1.23391056-4.9552637 4.15545264-4.955395 7.39767442-.0144072 4.3961549 3.5318946 7.9746632 7.928 8zm0-14c2.4331127-.02919945 4.642931 1.41399496 5.5943453 3.65357097.9514144 2.23957603.4560045 4.83200263-1.2541729 6.56295133-1.7101773 1.7309488-4.2964345 2.2576184-6.5473328 1.3333095-2.2508982-.9243089-3.7206644-3.1165439-3.7208396-5.5498318-.0160752-3.2922749 2.6357709-5.97632973 5.928-6z" fill="#000"/><path id="Shape" d="m58.617 13.088-3.1-1c-.0073238-4.28718716-2.3012785-8.24480425-6.0177534-10.38205514-3.716475-2.1372509-8.2908492-2.12943634-12.0000002.0205s-5.9895705 6.11536798-5.9822464 10.40255514c0 .151.013.3.016.451l-1.533.611-12.281-4.907c-.4362185-.17518402-.9202047-.19111627-1.367-.045l-14.963 4.848c-.82500803.2683212-1.38494591 1.0354644-1.389 1.903v42.71c.00067941.6398292.30744424 1.2407121.82527361 1.616524.51782937.375812 1.18420887.4811837 1.79272639.283476l14.352-4.642 12.309 4.909c.2287174.0853529.4708755.1290429.715.129.2548824-.0004289.5075966-.0468389.746-.137l12.291-4.908 14.352 4.649c.6083907.1973131 1.2744558.0917498 1.7920207-.2840138s.8241964-.9763995.8249793-1.6159862v-42.71c-.0036303-.8655665-.5607114-1.631704-1.383-1.902zm-24.21-5.124c1.9440548-4.30021887 6.629827-6.65599146 11.2408952-5.65136149s7.8921418 5.09616783 7.8711048 9.81536149c-.0323223 4.0166976-1.2014238 7.9421327-3.372 11.322-.057.1-.119.192-.181.285l-.066.1c-1.7329227 2.6431599-3.8886812 4.9833792-6.381 6.927-2.4949841-1.9456798-4.652809-4.2886446-6.387-6.935l-.061-.09c-.062-.093-.124-.185-.2-.314-2.1604398-3.3727342-3.3228493-7.2877626-3.353-11.293-.0056541-1.4363305.2975282-2.85709267.889-4.166zm5.157 21.983c1.0484894 1.0571022 2.1860209 2.0219966 3.4 2.884.3371795.2264307.7778205.2264307 1.115 0 1.207173-.8575686 2.3377379-1.818164 3.379-2.871.837393.3609895 1.4231286 1.1358927 1.542 2.04 0 1.419-2.259 3-5.5 3s-5.5-1.581-5.5-3c.1253151-.9112195.7187682-1.6902216 1.564-2.053zm18.436 27.753-14.357-4.653c-.4435601-.1398637-.9219973-.1207687-1.353.054l-12.29 4.899-12.281-4.9c-.4351807-.1777829-.9189432-.1972467-1.367-.055l-14.352 4.655v-42.709l14.97-4.852 12.276 4.9c.4790858.2024785 1.0193097.2046394 1.5.006l.938-.375c.4199977 3.4747214 1.6073124 6.8125924 3.476 9.772.081.14.166.269.3.474.8124916 1.2497388 1.7180586 2.436436 2.709 3.55-1.2726097.7369438-2.0881007 2.0656414-2.169 3.534 0 2.8 3.294 5 7.5 5s7.5-2.2 7.5-5c-.0768442-1.4598878-.8844933-2.7826577-2.148-3.518 1.0156334-1.1403172 1.9436107-2.3557803 2.776-3.636.088-.131.173-.26.236-.371 1.9750399-3.114228 3.1910246-6.6488045 3.55-10.319l2.586.834z" fill="#000"/><path id="Shape" d="m30 42c-.5522847 0-1 .4477153-1 1v11c0 .5522847.4477153 1 1 1s1-.4477153 1-1v-11c0-.5522847-.4477153-1-1-1z" fill="#000"/><path id="Shape" d="m30 18c-.5522847 0-1 .4477153-1 1v20c0 .5522847.4477153 1 1 1s1-.4477153 1-1v-20c0-.5522847-.4477153-1-1-1z" fill="#000"/><path id="Shape" d="m43 40c-.5522847 0-1 .4477153-1 1v8c0 .5522847.4477153 1 1 1s1-.4477153 1-1v-8c0-.5522847-.4477153-1-1-1z" fill="#000"/><path id="Shape" d="m17 27c-.5522847 0-1 .4477153-1 1v21c0 .5522847.4477153 1 1 1s1-.4477153 1-1v-21c0-.5522847-.4477153-1-1-1z" fill="#000"/><path id="Shape" d="m17 13c-.5522847 0-1 .4477153-1 1v10c0 .5522847.4477153 1 1 1s1-.4477153 1-1v-10c0-.5522847-.4477153-1-1-1z" fill="#000"/></g></g></svg>