<svg height="512" viewBox="0 0 512 512" width="512" xmlns="http://www.w3.org/2000/svg"><g id="Fill_out_line" data-name="Fill out line"><path d="m456 88h-432v304a32 32 0 0 0 32 32h400a32 32 0 0 1 32 32v-336a32 32 0 0 0 -32-32z" fill="#bc8d5d"/><path d="m424 424h32a32 32 0 0 1 32 32 32 32 0 0 1 -32 32 32 32 0 0 1 -32-32v-32a0 0 0 0 1 0 0z" fill="#a1764a"/><path d="m24 392a32 32 0 0 1 32-32 32 32 0 0 1 32 32v-336a32 32 0 0 0 -32-32 32 32 0 0 0 -32 32z" fill="#cc9f74"/><path d="m456 368v32h-197.33l21.33-32h16l16-32h128z" fill="#a1764a"/><path d="m376 296h64v40h-64z" fill="#eacf4d"/><path d="m312 296h64v40h-64z" fill="#f2e368"/><path d="m344 264h64a32 32 0 0 1 32 32 0 0 0 0 1 0 0h-128a0 0 0 0 1 0 0 32 32 0 0 1 32-32z" fill="#eacf4d"/><path d="m408 264a32 32 0 0 1 32 32 0 0 0 0 1 0 0h-64a0 0 0 0 1 0 0 32 32 0 0 1 32-32z" fill="#e0b82f"/><g fill="#7ab555"><rect height="48" rx="16" width="32" x="152" y="320"/><rect height="48" rx="16" width="32" x="216" y="288"/><rect height="48" rx="16" width="32" x="344" y="120"/><rect height="48" rx="16" width="32" x="408" y="152"/></g><path d="m456 80h-344v16h344a24.0275 24.0275 0 0 1 24 24v304.019a39.79461 39.79461 0 0 0 -24-8.019h-400a24 24 0 1 1 24-24 8 8 0 0 0 16 0v-336a40 40 0 0 0 -80 0v336a40.04552 40.04552 0 0 0 40 40h400a24 24 0 1 1 -24 24v-8h-16v8a40 40 0 0 0 80 0v-336a40.04552 40.04552 0 0 0 -40-40zm-424-24a24 24 0 0 1 48 0v304.019a39.924 39.924 0 0 0 -48 0z"/><path d="m232 131.31348 34.34277 34.34326 11.31446-11.31348-40-40a8.00122 8.00122 0 0 0 -11.31446 0l-34.34277 34.34274-14.34277-14.34278a8.00122 8.00122 0 0 0 -11.31446 0l-52 52 11.31446 11.31348 46.34277-46.34322 32.686 32.68646-18.34327 18.34332 11.31446 11.31348 26.34281-26.34326 10.34277 10.34326 11.31446-11.31348-16-16a8.00122 8.00122 0 0 0 -11.31446 0l-2.34277 2.34274-12.686-12.6861z"/><path d="m128 328a88.09957 88.09957 0 0 1 88-88 104.11791 104.11791 0 0 0 104-104v-16h-16v16a88.09957 88.09957 0 0 1 -88 88 104.11791 104.11791 0 0 0 -104 104v8h16z"/><path d="m304 296v38.11182l-12.94434 25.88818h-11.05566a7.99943 7.99943 0 0 0 -6.65625 3.5625l-16 24 13.3125 8.875 13.625-20.4375h38.77441l5.78907 11.57764 14.31054-7.15528-8-16a7.99869 7.99869 0 0 0 -7.15527-4.42236h-19.05566l8-16h62.11132l12.94434 25.88867v14.11133h16v-16a7.99583 7.99583 0 0 0 -.84473-3.57764l-10.21093-20.42236h38.11132l12 24h-23.05566v16h24v16h16v-32a7.99583 7.99583 0 0 0 -.84473-3.57764l-15.15527-30.31054v-38.11182a40.04552 40.04552 0 0 0 -40-40h-64a40.04552 40.04552 0 0 0 -40 40zm16 8h48v24h-48zm112 24h-48v-24h48zm-1.376-40h-45.248a23.9952 23.9952 0 0 1 45.248 0zm-86.624-16h32.022a39.83073 39.83073 0 0 0 -7.21679 16h-47.42921a24.03887 24.03887 0 0 1 22.624-16z"/><path d="m176 400v-25.37622a24.038 24.038 0 0 0 16-22.62378v-16a24 24 0 0 0 -48 0v16a24.038 24.038 0 0 0 16 22.62378v25.37622zm-16-64a8 8 0 0 1 16 0v16a8 8 0 0 1 -16 0z"/><path d="m240 368v-25.37622a24.038 24.038 0 0 0 16-22.62378v-16a24 24 0 0 0 -48 0v16a24.038 24.038 0 0 0 16 22.62378v25.37622zm-16-64a8 8 0 0 1 16 0v16a8 8 0 0 1 -16 0z"/><path d="m368 200v-25.37616a24.03813 24.03813 0 0 0 16-22.62384v-16a24 24 0 0 0 -48 0v16a24.03813 24.03813 0 0 0 16 22.62384v25.37616zm-16-64a8 8 0 0 1 16 0v16a8 8 0 0 1 -16 0z"/><path d="m432 232v-25.37616a24.03813 24.03813 0 0 0 16-22.62384v-16a24 24 0 0 0 -48 0v16a24.03813 24.03813 0 0 0 16 22.62384v25.37616zm-16-64a8 8 0 0 1 16 0v16a8 8 0 0 1 -16 0z"/></g></svg>