<svg id="Capa_1" enable-background="new 0 0 511.998 511.998" height="512" viewBox="0 0 511.998 511.998" width="512" xmlns="http://www.w3.org/2000/svg"><g><g><path d="m255.998 295.74h-60.732v165.97c0 3.226 1.475 6.275 4.004 8.278l32.411 25.666.011.009 11.71-5.92c9.621-4.864 21.099-4.264 30.161 1.576l6.741 4.344.01-.008 32.412-25.666c2.529-2.003 4.004-5.052 4.004-8.278v-165.971z" fill="#57be92"/><path d="m316.73 295.745v165.961c0 3.227-1.48 6.279-4.008 8.283l-16.432 13.02c.699-1.428 1.079-3.011 1.079-4.645v-182.619z" fill="#09a76d"/><path d="m280.302 295.742v199.916l-17.752 14.058c-3.84 3.043-9.265 3.043-13.105 0l-17.752-14.058v-199.916z" fill="#f9f7f8"/><path d="m280.301 295.745v199.914l-17.747 14.058c-.863.689-1.819 1.223-2.805 1.583v-215.555z" fill="#efedef"/><path d="m415.195 159.197c0-14.805-7.574-27.833-19.053-35.444-1.3-.862-1.748-2.536-1.054-3.932 6.135-12.331 6.18-27.401-1.222-40.222s-20.476-20.317-34.222-21.169c-1.557-.096-2.782-1.322-2.878-2.879-.852-13.747-8.348-26.82-21.169-34.222s-27.891-7.358-40.222-1.222c-1.396.695-3.07.246-3.932-1.054-7.612-11.479-20.641-19.053-35.445-19.053-14.805 0-27.833 7.574-35.444 19.053-.862 1.3-2.536 1.748-3.932 1.054-12.331-6.135-27.401-6.18-40.222 1.222-12.821 7.403-20.317 20.476-21.169 34.222-.096 1.557-1.322 2.782-2.878 2.879-13.747.852-26.82 8.348-34.222 21.169s-7.358 27.891-1.222 40.222c.695 1.396.246 3.07-1.054 3.932-11.479 7.611-19.053 20.639-19.053 35.444s7.574 27.833 19.053 35.444c1.3.862 1.748 2.536 1.054 3.932-6.135 12.331-6.18 27.401 1.222 40.222s20.476 20.317 34.222 21.169c1.557.096 2.782 1.322 2.878 2.879.852 13.747 8.348 26.82 21.169 34.222s27.891 7.358 40.222 1.222c1.396-.695 3.07-.246 3.932 1.054 7.611 11.479 20.64 19.053 35.444 19.053s27.833-7.574 35.444-19.053c.862-1.3 2.536-1.748 3.932-1.054 12.331 6.135 27.401 6.18 40.222-1.222s20.317-20.475 21.169-34.222c.096-1.557 1.322-2.782 2.878-2.879 13.747-.852 26.82-8.348 34.222-21.169s7.358-27.891 1.222-40.222c-.695-1.396-.246-3.07 1.054-3.932 11.48-7.611 19.054-20.639 19.054-35.444z" fill="#fe9738"/><path d="m396.145 194.637c11.479-7.605 19.052-20.635 19.052-35.443 0-14.798-7.574-27.828-19.052-35.443-1.305-.863-1.747-2.538-1.058-3.936 6.135-12.331 6.186-27.396-1.223-40.221-6.628-11.479-17.809-18.693-29.945-20.676 3.782 3.186 7.08 7.07 9.701 11.602 7.615 13.195-.38 37.94-6.7 50.631-.709 1.439-.247 3.165 1.089 4.049 4.45 2.959 8.355 6.834 12.465 10.235 6.012 4.984 9.053 11.006 10.081 17.449 2.22 14.038-2.61 28.106-14.592 36.059-1.336.884-1.798 2.61-1.089 4.049 5.611 11.283 7.604 24.437.606 35.556-5.837 9.279-16.627 14.5-27.325 15.281-3.884.277-7.594-.688-11.489-.452-4.593.288-3.401 6.834-3.093 9.814 1.172 11.324-.216 23.666-6.433 33.439-5.076 7.974-14.428 13.822-24.016 14.613 10.564 2.898 22.228 1.737 32.473-4.182 12.825-7.399 20.316-20.47 21.169-34.22.092-1.552 1.326-2.775 2.877-2.877 13.75-.853 26.821-8.344 34.22-21.169 7.409-12.825 7.358-27.89 1.223-40.221-.688-1.398-.246-3.074 1.059-3.937z" fill="#fe860a"/><circle cx="255.998" cy="159.197" fill="#ffe3cb" r="97.427"/><path d="m353.427 159.195c0 53.806-43.623 97.429-97.429 97.429-21.22 0-40.858-6.782-56.858-18.312 12.044 5.333 25.372 8.293 39.389 8.293 53.806 0 97.429-43.623 97.429-97.429 0-32.586-16-61.431-40.571-79.117 34.188 15.126 58.04 49.346 58.04 89.136z" fill="#feca9c"/><g><path d="m265.69 108.083 10.02 20.303c1.574 3.19 4.618 5.401 8.138 5.913l22.406 3.256c8.866 1.288 12.406 12.183 5.99 18.437l-16.213 15.804c-2.547 2.483-3.71 6.061-3.109 9.567l3.827 22.315c1.514 8.83-7.753 15.563-15.683 11.394l-20.04-10.536c-3.149-1.655-6.911-1.655-10.06 0l-20.04 10.536c-7.93 4.169-17.198-2.565-15.683-11.394l3.827-22.315c.601-3.506-.561-7.084-3.109-9.567l-16.213-15.804c-6.415-6.253-2.875-17.148 5.99-18.437l22.406-3.256c3.521-.512 6.564-2.723 8.138-5.913l10.02-20.303c3.967-8.034 15.423-8.034 19.388 0z" fill="#fac600"/><path d="m296.023 171.804c-2.538 2.476-3.71 6.053-3.103 9.557l3.823 22.31c1.521 8.827-7.738 15.579-15.671 11.396l-8.314-4.367c3.227-2.446 5.21-6.556 4.409-11.191l-4.1-23.903c-.637-3.751.617-7.584 3.33-10.235l17.377-16.935c3.566-3.473 4.254-8.282 2.775-12.3l9.711 1.408c8.858 1.295 12.403 12.188 5.981 18.446z" fill="#e8b800"/></g></g></g></svg>