<svg height="511pt" viewBox="0 -27 511.98339 511" width="511pt" xmlns="http://www.w3.org/2000/svg"><g fill="#ffea06"><path d="m439.28125 409.433594c0 26.824218-21.746094 48.574218-48.574219 48.574218s-48.574219-21.75-48.574219-48.574218c0-26.828125 21.746094-48.578125 48.574219-48.578125s48.574219 21.75 48.574219 48.578125zm0 0"/><path d="m511.984375 285.046875c0 26.828125-21.75 48.574219-48.574219 48.574219-26.828125 0-48.578125-21.746094-48.578125-48.574219 0-26.824219 21.75-48.574219 48.578125-48.574219 26.824219 0 48.574219 21.75 48.574219 48.574219zm0 0"/><path d="m487.722656 143.03125c0 26.828125-21.746094 48.574219-48.574218 48.574219-26.824219 0-48.574219-21.746094-48.574219-48.574219 0-26.824219 21.75-48.574219 48.574219-48.574219 26.828124 0 48.574218 21.75 48.574218 48.574219zm0 0"/><path d="m377.855469 49.835938c0 26.828124-21.75 48.574218-48.574219 48.574218-26.828125 0-48.578125-21.746094-48.578125-48.574218 0-26.828126 21.75-48.574219 48.578125-48.574219 26.824219 0 48.574219 21.746093 48.574219 48.574219zm0 0"/><path d="m233.785156 49.066406c0 26.828125-21.75 48.574219-48.574218 48.574219-26.828126 0-48.574219-21.746094-48.574219-48.574219s21.746093-48.574218 48.574219-48.574218c26.824218 0 48.574218 21.746093 48.574218 48.574218zm0 0"/><path d="m122.925781 141.082031c0 26.828125-21.75 48.578125-48.574219 48.578125-26.828124 0-48.578124-21.75-48.578124-48.578125 0-26.824219 21.75-48.574219 48.578124-48.574219 26.824219 0 48.574219 21.75 48.574219 48.574219zm0 0"/><path d="m97.148438 282.832031c0 26.828125-21.746094 48.574219-48.574219 48.574219s-48.574219-21.746094-48.574219-48.574219 21.746094-48.574219 48.574219-48.574219 48.574219 21.746094 48.574219 48.574219zm0 0"/><path d="m168.515625 407.984375c0 26.828125-21.746094 48.578125-48.574219 48.578125-26.824218 0-48.574218-21.75-48.574218-48.578125 0-26.824219 21.75-48.574219 48.574218-48.574219 26.828125 0 48.574219 21.75 48.574219 48.574219zm0 0"/></g><path d="m459.292969 252.992188c0 112.796874-91.4375 204.230468-204.230469 204.230468s-204.230469-91.433594-204.230469-204.230468c0-112.792969 91.4375-204.230469 204.230469-204.230469s204.230469 91.4375 204.230469 204.230469zm0 0" fill="#35e298"/><path d="m370.09375 368.019531c-27.15625 27.15625-61.480469 42.710938-96.855469 46.667969-47.449219 5.320312-96.785156-10.246094-133.207031-46.667969-63.582031-63.582031-63.570312-166.484375 0-230.054687 36.421875-36.421875 85.757812-51.984375 133.214844-46.667969 35.375 3.960937 69.691406 19.511719 96.847656 46.667969 63.582031 63.582031 63.570312 166.484375 0 230.054687zm0 0" fill="#2e5aac"/><path d="m370.09375 368.019531c-27.15625 27.15625-61.480469 42.710938-96.855469 46.667969-35.375-3.957031-69.691406-19.511719-96.847656-46.667969-63.578125-63.582031-63.570313-166.484375 0-230.054687 27.15625-27.15625 61.484375-42.707032 96.855469-46.667969 35.375 3.960937 69.691406 19.511719 96.847656 46.667969 63.582031 63.582031 63.570312 166.484375 0 230.054687zm0 0" fill="#4172cc"/></svg>