<svg id="Layer_1" enable-background="new 0 0 512 512" height="512" viewBox="0 0 512 512" width="512" xmlns="http://www.w3.org/2000/svg"><g><g><path d="m353.5 203.5h-195c-29.271 0-53-23.729-53-53 0-29.271 23.729-53 53-53h195c29.271 0 53 23.729 53 53 0 29.271-23.729 53-53 53z" fill="#faf2f3"/><path d="m406.5 150.5c0 14.64-5.93 27.88-15.52 37.48-9.6 9.59-22.84 15.52-37.48 15.52h-30c14.64 0 27.88-5.93 37.48-15.52 9.59-9.6 15.52-22.84 15.52-37.48 0-29.27-23.73-53-53-53h30c29.27 0 53 23.73 53 53z" fill="#f0e5e0"/><path d="m354 173.5h-196c-12.426 0-22.5-10.074-22.5-22.5 0-12.426 10.074-22.5 22.5-22.5h196c12.426 0 22.5 10.074 22.5 22.5 0 12.426-10.074 22.5-22.5 22.5z" fill="#fff"/><path d="m165.5 27.5h181v146h-181z" fill="#c3aff0"/><path d="m316.5 27.5h30v146h-30z" fill="#a69ded"/><path d="m220.5 27.5h71v146h-71z" fill="#fff"/><path d="m256 504.5c-91.403 0-165.5-74.097-165.5-165.5 0-91.403 74.097-165.5 165.5-165.5 91.403 0 165.5 74.097 165.5 165.5 0 91.403-74.097 165.5-165.5 165.5z" fill="#ffe07d"/><path d="m421.5 339c0 45.7-18.52 87.08-48.48 117.02-29.94 29.96-71.32 48.48-117.02 48.48-5.06 0-10.06-.23-15-.68 39.72-3.56 75.39-21.15 102.02-47.8 29.96-29.94 48.48-71.32 48.48-117.02s-18.52-87.08-48.48-117.02c-26.63-26.65-62.3-44.24-102.02-47.8 4.94-.45 9.94-.68 15-.68 45.7 0 87.08 18.52 117.02 48.48 29.96 29.94 48.48 71.32 48.48 117.02z" fill="#ffd064"/><path d="m256 474.5c-74.835 0-135.5-60.665-135.5-135.5 0-74.835 60.665-135.5 135.5-135.5 74.835 0 135.5 60.665 135.5 135.5 0 74.835-60.665 135.5-135.5 135.5z" fill="#faf2f3"/><path d="m256 173.5v30c-37.42 0-71.29 15.17-95.81 39.69s-39.69 58.39-39.69 95.81h-30c0-45.7 18.52-87.08 48.48-117.02 29.94-29.96 71.32-48.48 117.02-48.48z" fill="#ffd064"/><path d="m421.5 339c0 45.7-18.52 87.08-48.48 117.02-29.94 29.96-71.32 48.48-117.02 48.48v-30c37.42 0 71.29-15.17 95.81-39.69s39.69-58.39 39.69-95.81z" fill="#ffd064"/><path d="m421.5 339c0 45.7-18.52 87.08-48.48 117.02-29.94 29.96-71.32 48.48-117.02 48.48v-2.71c33.67-6.17 63.79-22.53 87.02-45.77 29.19-29.17 47.52-69.21 48.44-113.52.02-.58.02-1.17.03-1.75s.01-1.17.01-1.75z" fill="#f7c052"/><path d="m368.51 414.54c-4.91 7.29-10.51 14.08-16.7 20.27-24.52 24.52-58.39 39.69-95.81 39.69-43.06 0-81.44-20.09-106.26-51.42l-5.17-6.98-.1-.14c-.35-.5-.7-1.01-1.04-1.52l44.11-26.92c8.67-5.29 13.96-14.72 13.96-24.88 0-8.04-3.26-15.33-8.54-20.6-5.27-5.28-12.56-8.54-20.6-8.54h-8.12c-1.97 0-3.41-1.87-2.9-3.77l.41-1.54c4.67-17.51 20.53-29.69 38.65-29.69h39.97c66.19 0 121.6 50.18 128.14 116.04z" fill="#ffe07d"/><path d="m236 374.5c0 6.62-1.6 13.03-4.54 18.75s-7.23 10.75-12.61 14.6l-49.64 35.21c-7.16-5.98-13.69-12.68-19.48-20l-5.16-6.96-.09-.14c-.36-.5-.71-1.01-1.05-1.52l44.11-26.92c8.67-5.29 13.96-14.72 13.96-24.88 0-8.04-3.26-15.33-8.54-20.6-5.27-5.28-12.56-8.54-20.6-8.54h22.64c22.65 0 41 18.35 41 41z" fill="#ffd064"/><path d="m351.5 37.5h-191c-5.523 0-10-4.477-10-10v-10c0-5.523 4.477-10 10-10h191c5.523 0 10 4.477 10 10v10c0 5.523-4.477 10-10 10z" fill="#faf2f3"/><path d="m361.5 17.5v10c0 5.52-4.48 10-10 10h-30c5.52 0 10-4.48 10-10v-10c0-5.52-4.48-10-10-10h30c5.52 0 10 4.48 10 10z" fill="#f0e5e0"/></g><path d="m369.748 208.766c25.491-7.119 44.252-30.536 44.252-58.266 0-33.192-26.871-60.216-60-60.487v-45.213c8.466-1.22 15-8.502 15-17.3v-10c0-9.649-7.851-17.5-17.5-17.5h-191c-9.649 0-17.5 7.851-17.5 17.5v10c0 8.798 6.534 16.081 15 17.3v45.212c-33.129.271-60 27.296-60 60.487 0 27.73 18.761 51.147 44.252 58.266-36.29 31.737-59.252 78.352-59.252 130.235 0 95.393 77.607 173 173 173 40.417 0 79.742-14.232 110.732-40.076 3.181-2.652 3.61-7.382.957-10.563s-7.383-3.611-10.563-.956c-26.378 21.997-59.374 34.777-93.626 36.411v-15.012c72.894-3.785 131.519-62.41 135.304-135.304h15.018c-1.513 32.897-12.975 63.835-33.392 89.884-2.555 3.261-1.984 7.975 1.276 10.53 3.259 2.553 7.974 1.983 10.529-1.276 24.052-30.688 36.765-67.562 36.765-106.638 0-51.883-22.962-98.498-59.252-130.234zm44.07 122.734h-15.014c-3.785-72.894-62.41-131.519-135.304-135.304v-15.014c81.166 3.813 146.505 69.152 150.318 150.318zm-255.818-165.5c-8.271 0-15-6.729-15-15s6.729-15 15-15zm15-121h40v63.5c0 4.143 3.358 7.5 7.5 7.5s7.5-3.357 7.5-7.5v-63.5h56v121h-56v-22.5c0-4.143-3.358-7.5-7.5-7.5s-7.5 3.357-7.5 7.5v22.5h-40zm181 91c8.271 0 15 6.729 15 15s-6.729 15-15 15zm-15 30h-40v-121h40zm60-15.5c0 25.089-20.411 45.5-45.5 45.5-.077 0-.151.009-.228.011-8.443-5.762-17.42-10.796-26.84-15.011h27.568c16.542 0 30-13.458 30-30s-13.458-30-30-30v-15.987c24.858.27 45 20.566 45 45.487zm-241-133c0-1.379 1.122-2.5 2.5-2.5h191c1.378 0 2.5 1.121 2.5 2.5v10c0 1.379-1.122 2.5-2.5 2.5h-191c-1.378 0-2.5-1.121-2.5-2.5zm.5 178.5c-25.089 0-45.5-20.411-45.5-45.5 0-24.921 20.142-45.217 45-45.487v15.987c-16.542 0-30 13.458-30 30s13.458 30 30 30h27.568c-9.414 4.213-18.385 9.243-26.824 15zm90-14.818v15.014c-72.894 3.785-131.519 62.41-135.304 135.304h-15.014c3.813-81.166 69.152-146.505 150.318-150.318zm-150.318 165.318h15.014c3.785 72.894 62.41 131.519 135.304 135.304v15.014c-81.166-3.813-146.505-69.152-150.318-150.318zm110.818 16.144c0-7.714-2.402-14.874-6.488-20.785 14.865 3.419 25.988 16.749 25.988 32.638 0 10.788-5.239 20.975-14.015 27.248l-44.593 31.881c-5.699-5.191-10.923-10.893-15.612-17.024l37.164-22.679c10.829-6.609 17.556-18.594 17.556-31.279zm47 104.356c-27.542 0-53.079-8.744-73.983-23.602l41.192-29.45c12.706-9.084 20.292-23.832 20.292-39.451 0-26.741-21.755-48.497-48.497-48.497h-24.606c4.986-11.963 16.769-20 30-20h39.976c61.549 0 112.924 45.642 120.354 106.508-23.184 32.932-61.483 54.492-104.728 54.492zm116.177-74.306c-6.695-25.577-20.712-48.757-40.614-66.682-25.067-22.578-57.452-35.012-91.189-35.012h-39.976c-21.486 0-40.36 14.5-45.896 35.26l-.41 1.535c-.847 3.178-.184 6.495 1.82 9.103s5.038 4.102 8.326 4.102h8.118c11.934 0 21.644 9.709 21.644 21.644 0 7.492-3.973 14.571-10.369 18.475l-37.761 23.043c-11.344-19.1-17.87-41.382-17.87-65.162 0-70.579 57.42-128 128-128s128 57.421 128 128c0 19.165-4.242 37.355-11.823 53.694z"/></g></svg>