<svg id="_x35_0" enable-background="new 0 0 512 512" height="512" viewBox="0 0 512 512" width="512" xmlns="http://www.w3.org/2000/svg"><g><circle cx="256" cy="256" fill="#e9465e" r="256"/><g><g><g><path d="m111.725 107.172h288.55v33.913h-288.55z" fill="#decee5"/><path d="m111.725 128.341h288.55v12.744h-288.55z" fill="#c2aacf"/><path d="m256 128.341h144.275v12.744h-144.275z" fill="#decee5"/><path d="m256 107.172h144.275v21.169h-144.275z" fill="#f4e6f4"/><path d="m358.182 120.117h-70.965c-3.575 0-6.473-2.898-6.473-6.473 0-3.575 2.898-6.473 6.473-6.473h70.965c3.575 0 6.473 2.898 6.473 6.473 0 3.575-2.898 6.473-6.473 6.473z" fill="#fff"/></g><g><path d="m129.4 96.42v55.41c0 6.18-5 11.18-11.17 11.18h-13.01c-6.17 0-11.17-5-11.17-11.18v-55.41c0-6.17 5-11.17 11.17-11.17h13.01c6.17 0 11.17 5 11.17 11.17z" fill="#f39e22"/><path d="m129.4 96.42v33.49c0 6.17-5 11.17-11.17 11.17h-13.01c-6.17 0-11.17-5-11.17-11.17v-33.49c0-6.17 5-11.17 11.17-11.17h13.01c6.17 0 11.17 5 11.17 11.17z" fill="#f9c744"/><path d="m119.807 128.341c-5.298 0-9.593-4.295-9.593-9.593v-15.586c0-5.298 4.295-9.593 9.593-9.593 5.298 0 9.593 4.295 9.593 9.593v15.586c0 5.298-4.295 9.593-9.593 9.593z" fill="#fad98f"/></g><g><path d="m417.95 96.42v55.41c0 6.18-5 11.18-11.17 11.18h-13.01c-6.17 0-11.17-5-11.17-11.18v-55.41c0-6.17 5-11.17 11.17-11.17h13.01c6.17 0 11.17 5 11.17 11.17z" fill="#f9c744"/><path d="m417.95 96.42v33.49c0 6.17-5 11.17-11.17 11.17h-13.01c-6.17 0-11.17-5-11.17-11.17v-33.49c0-6.17 5-11.17 11.17-11.17h13.01c6.17 0 11.17 5 11.17 11.17z" fill="#fad98f"/><path d="m408.357 128.341c-5.298 0-9.593-4.295-9.593-9.593v-15.586c0-5.298 4.295-9.593 9.593-9.593 5.298 0 9.593 4.295 9.593 9.593v15.586c0 5.298-4.295 9.593-9.593 9.593z" fill="#faefdc"/></g></g><g><g><path d="m382.6 141.08v277.56c0 10.75-12.71 16.45-20.73 9.29l-97.59-87.06c-2.36-2.11-5.32-3.16-8.28-3.16s-5.92 1.05-8.28 3.16l-97.59 87.06c-8.02 7.16-20.73 1.46-20.73-9.29v-277.56z" fill="#f9c744"/><path d="m382.6 141.08v277.56c0 10.75-12.71 16.45-20.73 9.29l-97.59-87.06c-2.36-2.11-5.32-3.16-8.28-3.16v-196.63z" fill="#fad98f"/></g><g><path d="m359.57 141.08v232.16c0 8.99-10.4 13.75-16.96 7.76l-79.83-72.82c-1.93-1.76-4.36-2.64-6.78-2.64s-4.85.88-6.78 2.64l-79.83 72.82c-6.56 5.99-16.96 1.23-16.96-7.76v-232.16z" fill="#c0405c"/><path d="m359.57 141.08v232.16c0 8.99-10.4 13.75-16.96 7.76l-79.83-72.82c-1.93-1.76-4.36-2.64-6.78-2.64v-164.46z" fill="#e9465e"/></g><g><path d="m315.51 216.323-26.42 19.19c-3.95 2.88-5.61 7.96-4.1 12.61l10.09 31.06c1.18 3.61-2.96 6.62-6.03 4.39l-26.42-19.2c-1.97-1.44-4.3-2.15-6.63-2.15s-4.66.71-6.63 2.15l-26.42 19.2c-3.07 2.23-7.21-.78-6.03-4.39l10.09-31.06c1.51-4.65-.15-9.73-4.1-12.61l-26.42-19.19c-3.07-2.24-1.49-7.1 2.31-7.1h32.66c4.88 0 9.21-3.14 10.72-7.79l10.09-31.06c.59-1.8 2.16-2.71 3.73-2.71s3.14.91 3.73 2.71l10.09 31.06c1.51 4.65 5.84 7.79 10.72 7.79h32.66c3.8 0 5.38 4.86 2.31 7.1z" fill="#f4e6f4"/><path d="m315.51 216.323-26.42 19.19c-3.95 2.88-5.61 7.96-4.1 12.61l10.09 31.06c1.18 3.61-2.96 6.62-6.03 4.39l-26.42-19.2c-1.97-1.44-4.3-2.15-6.63-2.15v-94.56c1.57 0 3.14.91 3.73 2.71l10.09 31.06c1.51 4.65 5.84 7.79 10.72 7.79h32.66c3.8 0 5.38 4.86 2.31 7.1z" fill="#fff"/></g></g></g></g></svg>