<svg id="_x35_0" enable-background="new 0 0 512 512" height="512" viewBox="0 0 512 512" width="512" xmlns="http://www.w3.org/2000/svg"><g><circle cx="256" cy="256" fill="#10a36d" r="256"/><g><g><g><path d="m299.331 483.163c-1.211 0-2.422-.462-3.346-1.386-1.848-1.848-1.848-4.844 0-6.693l109.764-109.763c15.256-15.257 23.658-35.541 23.658-57.117v-184.698c0-2.613 2.118-4.732 4.732-4.732s4.732 2.119 4.732 4.732v184.699c0 24.104-9.387 46.765-26.431 63.81l-109.764 109.762c-.923.924-2.135 1.386-3.345 1.386z" fill="#fad98f"/></g><g fill="#f9c744"><path d="m373.512 394.077h-4.802c-10.826 0-18.579-10.453-15.437-20.814l11.025-36.348c2.044-6.737 11.583-6.737 13.626 0l11.025 36.348c3.142 10.361-4.611 20.814-15.437 20.814z"/><path d="m443.211 271.355-2.878-2.878c-6.488-6.488-4.87-17.4 3.222-21.726l28.391-15.176c5.263-2.813 10.98 2.904 8.166 8.166l-15.176 28.391c-4.325 8.093-15.236 9.711-21.725 3.223z"/><path d="m443.049 191.208-2.553-2.553c-5.756-5.756-4.32-15.437 2.859-19.274l25.188-13.464c4.669-2.496 9.741 2.576 7.245 7.245l-13.464 25.188c-3.839 7.178-13.519 8.614-19.275 2.858z"/><path d="m435.944 141.828h-3.611c-8.141 0-13.97-7.86-11.608-15.65l8.29-27.331c1.537-5.066 8.709-5.066 10.246 0l8.29 27.331c2.363 7.79-3.466 15.65-11.607 15.65z"/><path d="m427.698 228.766-2.878 2.878c-6.488 6.488-17.4 4.87-21.726-3.222l-15.176-28.391c-2.813-5.263 2.904-10.98 8.166-8.166l28.391 15.176c8.093 4.325 9.711 15.237 3.223 21.725z"/><path d="m425.208 316.72-3.514 2.227c-7.923 5.02-18.444.964-20.947-8.075l-8.784-31.712c-1.628-5.878 5.353-10.301 9.972-6.318l24.921 21.489c7.102 6.124 6.274 17.369-1.648 22.389z"/><path d="m349.855 442.529v-4.802c0-10.826 10.453-18.579 20.814-15.437l36.348 11.025c6.737 2.044 6.737 11.583 0 13.626l-36.348 11.025c-10.36 3.143-20.814-4.61-20.814-15.437z"/><path d="m425.146 368.373-1.494-4.217c-3.368-9.508 3.4-19.569 13.477-20.032l35.351-1.625c6.553-.301 9.52 8.076 4.239 11.967l-28.491 20.99c-8.122 5.981-19.714 2.425-23.082-7.083z"/></g></g><g><g><path d="m212.669 483.163c1.211 0 2.422-.462 3.346-1.386 1.848-1.848 1.848-4.844 0-6.693l-109.763-109.762c-15.256-15.257-23.658-35.541-23.658-57.117v-184.699c0-2.613-2.118-4.732-4.732-4.732s-4.732 2.119-4.732 4.732v184.699c0 24.104 9.387 46.765 26.431 63.81l109.763 109.763c.923.923 2.135 1.385 3.345 1.385z" fill="#f9c744"/></g><g fill="#f39e22"><path d="m138.488 394.077h4.802c10.826 0 18.579-10.453 15.437-20.814l-11.025-36.348c-2.044-6.737-11.583-6.737-13.626 0l-11.025 36.348c-3.142 10.361 4.611 20.814 15.437 20.814z"/><path d="m68.789 271.355 2.878-2.878c6.488-6.488 4.87-17.4-3.222-21.726l-28.391-15.176c-5.263-2.813-10.98 2.904-8.166 8.166l15.176 28.391c4.325 8.093 15.236 9.711 21.725 3.223z"/><path d="m68.951 191.208 2.553-2.553c5.756-5.756 4.321-15.437-2.859-19.274l-25.188-13.464c-4.669-2.496-9.741 2.576-7.245 7.245l13.464 25.188c3.839 7.178 13.519 8.614 19.275 2.858z"/><path d="m76.056 141.828h3.611c8.141 0 13.97-7.86 11.608-15.65l-8.29-27.331c-1.537-5.066-8.709-5.066-10.246 0l-8.29 27.331c-2.363 7.79 3.466 15.65 11.607 15.65z"/><path d="m84.302 228.766 2.878 2.878c6.488 6.488 17.4 4.87 21.726-3.222l15.176-28.391c2.813-5.263-2.904-10.98-8.166-8.166l-28.391 15.176c-8.093 4.325-9.711 15.237-3.223 21.725z"/><path d="m86.792 316.72 3.514 2.227c7.923 5.02 18.444.964 20.947-8.075l8.784-31.712c1.628-5.878-5.353-10.301-9.972-6.318l-24.919 21.488c-7.104 6.125-6.277 17.37 1.646 22.39z"/><path d="m162.145 442.529v-4.802c0-10.826-10.453-18.579-20.814-15.437l-36.348 11.025c-6.737 2.044-6.737 11.583 0 13.626l36.348 11.025c10.36 3.143 20.814-4.61 20.814-15.437z"/><path d="m86.854 368.373 1.494-4.217c3.368-9.508-3.4-19.569-13.477-20.032l-35.351-1.625c-6.553-.301-9.52 8.076-4.239 11.967l28.491 20.99c8.122 5.981 19.714 2.425 23.082-7.083z"/></g></g></g><g><g><path d="m366.73 96.71v168.5c0 54.58-44.25 98.83-98.83 98.83h-23.8c-54.58 0-98.83-44.25-98.83-98.83v-168.5c0-15.47 17.52-24.43 30.06-15.37l14.2 10.25c6.63 4.79 15.58 4.79 22.21 0l33.15-23.95c3.31-2.4 7.21-3.59 11.11-3.59s7.8 1.19 11.11 3.59l33.15 23.95c6.63 4.79 15.58 4.79 22.21 0l14.2-10.25c12.54-9.06 30.06-.1 30.06 15.37z" fill="#f39e22"/><path d="m366.73 96.71v168.5c0 54.58-44.25 98.83-98.83 98.83h-11.9v-299.99c3.9 0 7.8 1.19 11.11 3.59l33.15 23.95c6.63 4.79 15.58 4.79 22.21 0l14.2-10.25c12.54-9.06 30.06-.1 30.06 15.37z" fill="#f9c744"/></g><g><g><path d="m330.806 139.778v113.829c0 36.875-29.896 66.771-66.771 66.771h-16.071c-36.875 0-66.771-29.896-66.771-66.771v-113.829c0-10.451 11.838-16.509 20.312-10.389l9.583 6.926c4.483 3.239 10.532 3.239 15.006 0l22.406-16.178c2.237-1.62 4.868-2.425 7.499-2.425s5.262.805 7.499 2.425l22.406 16.178c4.474 3.239 10.523 3.239 15.006 0l9.583-6.926c8.475-6.12 20.313-.062 20.313 10.389z" fill="#c0405c"/></g><path d="m330.806 139.778v113.829c0 36.875-29.896 66.771-66.771 66.771h-8.035v-202.666c2.631 0 5.262.805 7.499 2.425l22.406 16.178c4.474 3.239 10.523 3.239 15.006 0l9.583-6.926c8.474-6.12 20.312-.062 20.312 10.389z" fill="#e9465e"/></g><g><path d="m301.71 117.23-8.3 6-21.13-15.25c-4.75-3.44-10.39-5.27-16.28-5.27s-11.53 1.83-16.3 5.28l-21.11 15.24-8.3-6c-18.04-13.35-44.29.14-44.1 22.55v113.83c0 45.09 36.69 81.77 81.77 81.77h16.08c45.08 0 81.77-36.68 81.77-81.77v-113.83c.18-22.39-26.02-35.92-44.1-22.55zm29.1 136.38c0 36.87-29.9 66.77-66.77 66.77h-16.08c-36.87 0-66.77-29.9-66.77-66.77v-113.83c0-7.57 6.22-12.84 12.86-12.84 2.53 0 5.12.76 7.46 2.45l9.58 6.93c4.48 3.23 10.53 3.24 15.01 0l22.4-16.18c2.24-1.62 4.87-2.43 7.5-2.43s5.26.81 7.5 2.43l22.4 16.18c4.48 3.24 10.53 3.23 15.01 0l9.58-6.93c2.34-1.69 4.93-2.45 7.46-2.45 6.64 0 12.86 5.27 12.86 12.84z" fill="#f4e6f4"/><path d="m345.81 139.78v113.83c0 45.09-36.69 81.77-81.77 81.77h-8.04v-15h8.04c36.87 0 66.77-29.9 66.77-66.77v-113.83c0-7.57-6.22-12.84-12.86-12.84-2.53 0-5.12.76-7.46 2.45l-9.58 6.93c-4.48 3.23-10.53 3.24-15.01 0l-22.4-16.18c-2.24-1.62-4.87-2.43-7.5-2.43v-15c5.89 0 11.53 1.83 16.28 5.27l21.13 15.25 8.3-6c18.08-13.37 44.28.16 44.1 22.55z" fill="#fff"/></g><g><path d="m259.17 180.895-13.081 9.501c-1.956 1.426-2.778 3.941-2.03 6.243l4.996 15.378c.584 1.787-1.466 3.278-2.986 2.174l-13.081-9.506c-.975-.713-2.129-1.065-3.283-1.065s-2.307.352-3.283 1.065l-13.081 9.506c-1.52 1.104-3.57-.386-2.986-2.174l4.996-15.378c.748-2.302-.074-4.818-2.03-6.243l-13.081-9.501c-1.52-1.109-.738-3.515 1.144-3.515h16.17c2.416 0 4.56-1.555 5.308-3.857l4.996-15.378c.292-.891 1.069-1.342 1.847-1.342.777 0 1.555.451 1.847 1.342l4.996 15.378c.748 2.302 2.891 3.857 5.308 3.857h16.17c1.882 0 2.664 2.406 1.144 3.515z" fill="#f4e6f4"/><path d="m259.17 180.895-13.081 9.501c-1.956 1.426-2.778 3.941-2.03 6.243l4.996 15.378c.584 1.787-1.466 3.278-2.986 2.174l-13.081-9.506c-.975-.713-2.129-1.065-3.283-1.065v-46.818c.777 0 1.555.451 1.847 1.342l4.996 15.378c.748 2.302 2.891 3.857 5.308 3.857h16.17c1.882.001 2.664 2.407 1.144 3.516z" fill="#fff"/></g><g><path d="m311.759 244.412-13.081 9.501c-1.956 1.426-2.778 3.941-2.03 6.243l4.996 15.378c.584 1.787-1.466 3.278-2.986 2.174l-13.081-9.506c-.975-.713-2.129-1.065-3.283-1.065s-2.307.352-3.283 1.065l-13.081 9.506c-1.52 1.104-3.57-.386-2.986-2.174l4.996-15.378c.748-2.302-.074-4.818-2.03-6.243l-13.081-9.501c-1.52-1.109-.738-3.515 1.144-3.515h16.17c2.416 0 4.56-1.555 5.308-3.857l4.996-15.378c.292-.891 1.069-1.342 1.847-1.342s1.555.451 1.847 1.342l4.996 15.378c.748 2.302 2.891 3.857 5.308 3.857h16.17c1.882 0 2.664 2.406 1.144 3.515z" fill="#f4e6f4"/><path d="m311.759 244.412-13.081 9.501c-1.956 1.426-2.778 3.941-2.03 6.243l4.996 15.378c.584 1.787-1.466 3.278-2.986 2.174l-13.081-9.506c-.975-.713-2.129-1.065-3.283-1.065v-46.817c.777 0 1.555.451 1.847 1.342l4.996 15.378c.748 2.302 2.891 3.857 5.308 3.857h16.17c1.882 0 2.664 2.406 1.144 3.515z" fill="#fff"/></g><path d="m356.27 265.21c-5.777 0-10.46-4.683-10.46-10.46v-104.51c0-5.777 4.683-10.46 10.46-10.46 5.777 0 10.46 4.683 10.46 10.46v104.51c0 5.777-4.683 10.46-10.46 10.46z" fill="#fad98f"/></g></g></svg>