<svg id="_x35_0" enable-background="new 0 0 512 512" height="512" viewBox="0 0 512 512" width="512" xmlns="http://www.w3.org/2000/svg"><g><circle cx="256" cy="256" fill="#10a36d" r="256"/><g><g><g><path d="m111.725 107.172h288.55v33.913h-288.55z" fill="#decee5"/><path d="m111.725 128.341h288.55v12.744h-288.55z" fill="#c2aacf"/><path d="m256 128.341h144.275v12.744h-144.275z" fill="#decee5"/><path d="m256 107.172h144.275v21.169h-144.275z" fill="#f4e6f4"/><path d="m358.182 120.117h-70.965c-3.575 0-6.473-2.898-6.473-6.473 0-3.575 2.898-6.473 6.473-6.473h70.965c3.575 0 6.473 2.898 6.473 6.473 0 3.575-2.898 6.473-6.473 6.473z" fill="#fff"/></g><g><path d="m129.4 96.42v55.41c0 6.18-5 11.18-11.17 11.18h-13.01c-6.17 0-11.17-5-11.17-11.18v-55.41c0-6.17 5-11.17 11.17-11.17h13.01c6.17 0 11.17 5 11.17 11.17z" fill="#f39e22"/><path d="m129.4 96.42v33.49c0 6.17-5 11.17-11.17 11.17h-13.01c-6.17 0-11.17-5-11.17-11.17v-33.49c0-6.17 5-11.17 11.17-11.17h13.01c6.17 0 11.17 5 11.17 11.17z" fill="#f9c744"/><path d="m119.807 128.341c-5.298 0-9.593-4.295-9.593-9.593v-15.586c0-5.298 4.295-9.593 9.593-9.593 5.298 0 9.593 4.295 9.593 9.593v15.586c0 5.298-4.295 9.593-9.593 9.593z" fill="#fad98f"/></g><g><path d="m417.95 96.42v55.41c0 6.18-5 11.18-11.17 11.18h-13.01c-6.17 0-11.17-5-11.17-11.18v-55.41c0-6.17 5-11.17 11.17-11.17h13.01c6.17 0 11.17 5 11.17 11.17z" fill="#f9c744"/><path d="m417.95 96.42v33.49c0 6.17-5 11.17-11.17 11.17h-13.01c-6.17 0-11.17-5-11.17-11.17v-33.49c0-6.17 5-11.17 11.17-11.17h13.01c6.17 0 11.17 5 11.17 11.17z" fill="#fad98f"/><path d="m408.357 128.341c-5.298 0-9.593-4.295-9.593-9.593v-15.586c0-5.298 4.295-9.593 9.593-9.593 5.298 0 9.593 4.295 9.593 9.593v15.586c0 5.298-4.295 9.593-9.593 9.593z" fill="#faefdc"/></g></g><g><g><path d="m382.6 141.08v277.56c0 10.75-12.71 16.45-20.73 9.29l-97.59-87.06c-2.36-2.11-5.32-3.16-8.28-3.16s-5.92 1.05-8.28 3.16l-97.59 87.06c-8.02 7.16-20.73 1.46-20.73-9.29v-277.56z" fill="#f9c744"/><path d="m382.6 141.08v277.56c0 10.75-12.71 16.45-20.73 9.29l-97.59-87.06c-2.36-2.11-5.32-3.16-8.28-3.16v-196.63z" fill="#fad98f"/></g><g><path d="m359.57 141.08v232.16c0 8.99-10.4 13.75-16.96 7.76l-79.83-72.82c-1.93-1.76-4.36-2.64-6.78-2.64s-4.85.88-6.78 2.64l-79.83 72.82c-6.56 5.99-16.96 1.23-16.96-7.76v-232.16z" fill="#50755c"/><path d="m359.57 141.08v232.16c0 8.99-10.4 13.75-16.96 7.76l-79.83-72.82c-1.93-1.76-4.36-2.64-6.78-2.64v-164.46z" fill="#528f66"/></g><g><path d="m240.607 220.082-16.156 11.735c-2.416 1.761-3.431 4.868-2.507 7.711l6.17 18.994c.722 2.208-1.81 4.048-3.688 2.685l-16.156-11.741c-1.205-.881-2.63-1.315-4.054-1.315s-2.85.434-4.054 1.315l-16.156 11.741c-1.877 1.364-4.409-.477-3.688-2.685l6.17-18.994c.923-2.844-.092-5.95-2.507-7.711l-16.156-11.735c-1.877-1.37-.911-4.342 1.413-4.342h19.972c2.984 0 5.632-1.92 6.555-4.764l6.17-18.994c.361-1.101 1.321-1.657 2.281-1.657s1.92.556 2.281 1.657l6.17 18.994c.923 2.844 3.571 4.764 6.555 4.764h19.972c2.324 0 3.29 2.972 1.413 4.342z" fill="#f4e6f4"/><path d="m240.607 220.082-16.156 11.735c-2.416 1.761-3.431 4.868-2.507 7.711l6.17 18.994c.722 2.208-1.81 4.048-3.688 2.685l-16.156-11.741c-1.205-.881-2.63-1.315-4.054-1.315v-57.826c.96 0 1.92.556 2.281 1.657l6.17 18.994c.923 2.844 3.571 4.764 6.555 4.764h19.972c2.324 0 3.29 2.972 1.413 4.342z" fill="#fff"/></g><g><path d="m344.177 220.082-16.156 11.735c-2.416 1.761-3.431 4.868-2.507 7.711l6.17 18.994c.722 2.208-1.81 4.048-3.688 2.685l-16.156-11.741c-1.205-.881-2.629-1.315-4.054-1.315s-2.85.434-4.054 1.315l-16.156 11.741c-1.877 1.364-4.409-.477-3.688-2.685l6.17-18.994c.923-2.844-.092-5.95-2.507-7.711l-16.156-11.735c-1.877-1.37-.911-4.342 1.413-4.342h19.972c2.984 0 5.632-1.92 6.556-4.764l6.17-18.994c.361-1.101 1.321-1.657 2.281-1.657s1.92.556 2.281 1.657l6.17 18.994c.923 2.844 3.571 4.764 6.556 4.764h19.972c2.322 0 3.288 2.972 1.411 4.342z" fill="#f4e6f4"/><path d="m344.177 220.082-16.156 11.735c-2.416 1.761-3.431 4.868-2.507 7.711l6.17 18.994c.722 2.208-1.81 4.048-3.688 2.685l-16.156-11.741c-1.205-.881-2.629-1.315-4.054-1.315v-57.826c.96 0 1.92.556 2.281 1.657l6.17 18.994c.923 2.844 3.571 4.764 6.556 4.764h19.972c2.323 0 3.289 2.972 1.412 4.342z" fill="#fff"/></g></g></g></g></svg>