<svg id="Capa_1" enable-background="new 0 0 495.78 495.78" height="512" viewBox="0 0 495.78 495.78" width="512" xmlns="http://www.w3.org/2000/svg"><g id="XMLID_859_"><g><path d="m248.47 20.76v128.69l-.38 77.66c-.07 13.03-10.65 23.55-23.67 23.55h-65.93-136.92c-11.47 0-20.77-9.29-20.77-20.76v-209.14c0-11.47 9.3-20.76 20.77-20.76h206.13c11.47 0 20.77 9.29 20.77 20.76zm-50 179.9v-150.66h-147.67v150.66z" fill="#6cf5c2"/></g></g><g><path d="m25.134 229.9v-209.14c0-11.47 9.3-20.76 20.77-20.76h-24.334c-11.47 0-20.77 9.29-20.77 20.76v209.14c0 11.47 9.3 20.76 20.77 20.76h24.334c-11.47 0-20.77-9.29-20.77-20.76z" fill="#00f2a6"/></g><path d="m221.538 366.088h-125.925c-12.647 0-19.609-14.699-11.596-24.484l152.857-186.657c5.997-7.323 17.195-7.323 23.192 0l59.552 72.721 15.098 22.993-64.628 47.025-12.775 68.403h-35.775z" fill="#fccd7f"/><path d="m117.128 341.604 147.897-180.602-4.959-6.056c-5.997-7.323-17.195-7.323-23.192 0l-152.857 186.658c-8.013 9.785-1.051 24.484 11.596 24.484h33.11c-12.647 0-19.608-14.699-11.595-24.484z" fill="#fbc56d"/><g id="XMLID_862_"><g><path d="m358.17 222.15c75.56 0 136.81 61.25 136.81 136.82 0 75.56-61.25 136.81-136.81 136.81s-136.82-61.25-136.82-136.81c0-75.57 61.26-136.82 136.82-136.82zm86.81 136.82c0-47.87-38.94-86.82-86.81-86.82s-86.82 38.95-86.82 86.82 38.95 86.81 86.82 86.81 86.81-38.94 86.81-86.81z" fill="#99e6fc"/></g></g><g><path d="m248.611 358.97c0-70.969 54.029-129.305 123.19-136.146-4.484-.443-9.03-.675-13.63-.675-75.56 0-136.82 61.25-136.82 136.82 0 75.56 61.26 136.81 136.82 136.81 4.6 0 9.147-.231 13.63-.675-69.162-6.839-123.19-65.174-123.19-136.134z" fill="#62dbfb"/></g></svg>