<svg id="_x35_0" enable-background="new 0 0 512 512" height="512" viewBox="0 0 512 512" width="512" xmlns="http://www.w3.org/2000/svg"><g><circle cx="256" cy="256" fill="#6052a3" r="256"/><g><g><g><path d="m111.725 107.172h288.55v33.913h-288.55z" fill="#decee5"/><path d="m111.725 128.341h288.55v12.744h-288.55z" fill="#c2aacf"/><path d="m256 128.341h144.275v12.744h-144.275z" fill="#decee5"/><path d="m256 107.172h144.275v21.169h-144.275z" fill="#f4e6f4"/><path d="m358.182 120.117h-70.965c-3.575 0-6.473-2.898-6.473-6.473 0-3.575 2.898-6.473 6.473-6.473h70.965c3.575 0 6.473 2.898 6.473 6.473 0 3.575-2.898 6.473-6.473 6.473z" fill="#fff"/></g><g><path d="m129.4 96.42v55.41c0 6.18-5 11.18-11.17 11.18h-13.01c-6.17 0-11.17-5-11.17-11.18v-55.41c0-6.17 5-11.17 11.17-11.17h13.01c6.17 0 11.17 5 11.17 11.17z" fill="#f39e22"/><path d="m129.4 96.42v33.49c0 6.17-5 11.17-11.17 11.17h-13.01c-6.17 0-11.17-5-11.17-11.17v-33.49c0-6.17 5-11.17 11.17-11.17h13.01c6.17 0 11.17 5 11.17 11.17z" fill="#f9c744"/><path d="m119.807 128.341c-5.298 0-9.593-4.295-9.593-9.593v-15.586c0-5.298 4.295-9.593 9.593-9.593 5.298 0 9.593 4.295 9.593 9.593v15.586c0 5.298-4.295 9.593-9.593 9.593z" fill="#fad98f"/></g><g><path d="m417.95 96.42v55.41c0 6.18-5 11.18-11.17 11.18h-13.01c-6.17 0-11.17-5-11.17-11.18v-55.41c0-6.17 5-11.17 11.17-11.17h13.01c6.17 0 11.17 5 11.17 11.17z" fill="#f9c744"/><path d="m417.95 96.42v33.49c0 6.17-5 11.17-11.17 11.17h-13.01c-6.17 0-11.17-5-11.17-11.17v-33.49c0-6.17 5-11.17 11.17-11.17h13.01c6.17 0 11.17 5 11.17 11.17z" fill="#fad98f"/><path d="m408.357 128.341c-5.298 0-9.593-4.295-9.593-9.593v-15.586c0-5.298 4.295-9.593 9.593-9.593 5.298 0 9.593 4.295 9.593 9.593v15.586c0 5.298-4.295 9.593-9.593 9.593z" fill="#faefdc"/></g></g><g><g><path d="m382.6 141.08v277.56c0 10.75-12.71 16.45-20.73 9.29l-97.59-87.06c-2.36-2.11-5.32-3.16-8.28-3.16s-5.92 1.05-8.28 3.16l-97.59 87.06c-8.02 7.16-20.73 1.46-20.73-9.29v-277.56z" fill="#f9c744"/><path d="m382.6 141.08v277.56c0 10.75-12.71 16.45-20.73 9.29l-97.59-87.06c-2.36-2.11-5.32-3.16-8.28-3.16v-196.63z" fill="#fad98f"/></g><g><path d="m359.57 141.08v232.16c0 8.99-10.4 13.75-16.96 7.76l-79.83-72.82c-1.93-1.76-4.36-2.64-6.78-2.64s-4.85.88-6.78 2.64l-79.83 72.82c-6.56 5.99-16.96 1.23-16.96-7.76v-232.16z" fill="#57409b"/><path d="m359.57 141.08v232.16c0 8.99-10.4 13.75-16.96 7.76l-79.83-72.82c-1.93-1.76-4.36-2.64-6.78-2.64v-164.46z" fill="#6052a3"/></g><g><path d="m233.441 267.741-13.181 9.574c-1.971 1.437-2.799 3.971-2.046 6.291l5.034 15.496c.589 1.801-1.477 3.303-3.008 2.19l-13.181-9.579c-.983-.718-2.145-1.073-3.308-1.073s-2.325.354-3.308 1.073l-13.181 9.579c-1.532 1.113-3.597-.389-3.008-2.19l5.034-15.496c.753-2.32-.075-4.854-2.046-6.291l-13.181-9.574c-1.532-1.118-.743-3.542 1.153-3.542h16.295c2.435 0 4.595-1.567 5.348-3.887l5.034-15.496c.294-.898 1.078-1.352 1.861-1.352s1.567.454 1.861 1.352l5.034 15.496c.753 2.32 2.914 3.887 5.348 3.887h16.295c1.895 0 2.683 2.424 1.151 3.542z" fill="#f4e6f4"/><path d="m233.441 267.741-13.181 9.574c-1.971 1.437-2.799 3.971-2.046 6.291l5.034 15.496c.589 1.801-1.477 3.303-3.008 2.19l-13.181-9.579c-.983-.718-2.145-1.073-3.308-1.073v-47.178c.783 0 1.567.454 1.861 1.352l5.034 15.496c.753 2.32 2.914 3.887 5.348 3.887h16.295c1.896.002 2.684 2.426 1.152 3.544z" fill="#fff"/></g><g><path d="m337.94 267.741-13.181 9.574c-1.971 1.437-2.799 3.971-2.046 6.291l5.034 15.496c.589 1.801-1.477 3.303-3.008 2.19l-13.181-9.579c-.983-.718-2.145-1.073-3.308-1.073s-2.325.354-3.308 1.073l-13.181 9.579c-1.532 1.113-3.597-.389-3.008-2.19l5.034-15.496c.753-2.32-.075-4.854-2.046-6.291l-13.181-9.574c-1.532-1.118-.743-3.542 1.153-3.542h16.295c2.435 0 4.595-1.567 5.348-3.887l5.034-15.496c.294-.898 1.078-1.352 1.861-1.352s1.567.454 1.861 1.352l5.034 15.496c.753 2.32 2.914 3.887 5.348 3.887h16.295c1.894 0 2.683 2.424 1.151 3.542z" fill="#f4e6f4"/><path d="m337.94 267.741-13.181 9.574c-1.971 1.437-2.799 3.971-2.046 6.291l5.034 15.496c.589 1.801-1.477 3.303-3.008 2.19l-13.181-9.579c-.983-.718-2.145-1.073-3.308-1.073v-47.178c.783 0 1.567.454 1.861 1.352l5.034 15.496c.753 2.32 2.914 3.887 5.348 3.887h16.295c1.895.002 2.684 2.426 1.152 3.544z" fill="#fff"/></g><g><path d="m301.68 193.141-20.28 14.73c-3.032 2.211-4.306 6.11-3.147 9.679l7.745 23.842c.906 2.771-2.272 5.081-4.629 3.37l-20.28-14.738c-1.512-1.105-3.301-1.65-5.089-1.65-1.789 0-3.577.545-5.089 1.65l-20.28 14.738c-2.356 1.712-5.534-.599-4.629-3.37l7.745-23.842c1.159-3.569-.115-7.469-3.147-9.679l-20.28-14.73c-2.357-1.719-1.144-5.45 1.773-5.45h25.07c3.746 0 7.07-2.41 8.229-5.98l7.745-23.842c.453-1.382 1.658-2.08 2.863-2.08s2.41.698 2.863 2.08l7.745 23.842c1.159 3.569 4.483 5.98 8.229 5.98h25.07c2.916 0 4.129 3.73 1.773 5.45z" fill="#f4e6f4"/><path d="m301.68 193.141-20.28 14.73c-3.032 2.211-4.306 6.11-3.147 9.679l7.745 23.842c.906 2.771-2.272 5.081-4.629 3.37l-20.28-14.738c-1.512-1.105-3.301-1.65-5.089-1.65v-72.584c1.205 0 2.41.698 2.863 2.08l7.745 23.842c1.159 3.569 4.483 5.98 8.229 5.98h25.07c2.916-.001 4.129 3.729 1.773 5.449z" fill="#fff"/></g></g></g></g></svg>