<svg id="Layer_1" enable-background="new 0 0 512 512" height="512" viewBox="0 0 512 512" width="512" xmlns="http://www.w3.org/2000/svg"><g id="XMLID_1196_"><g id="XMLID_2175_"><path id="XMLID_9_" d="m249.485 255.801 47.091-8.817c22.29-4.173 44.92-6.274 67.597-6.274l-2.012 69.752c-10.239 11.518-24.914 18.109-40.325 18.109h-72.351z" fill="#ffcd69"/></g><g id="XMLID_1114_"><path id="XMLID_10_" d="m290.333 249.622v78.949h-40.848v-72.77z" fill="#ffcd69"/></g><g id="XMLID_2123_"><path id="XMLID_604_" d="m249.485 255.801v72.77h-81.462c-24.077 0-46.527-12.154-59.69-32.315l-46.083-70.673 34.988-23.321 48.96 69.626h38.229c12.572-10.399 28.376-16.088 44.691-16.088h20.367z" fill="#8aa8bd"/></g><g id="XMLID_1533_"><path d="m380.417 264.337c14.541 14.541 38.116 14.541 52.656 0l18.593-18.593c14.541-14.541 14.541-38.116 0-52.656-14.541-14.541-38.116-14.541-52.656 0l-18.593 18.593c-14.541 14.54-14.541 38.115 0 52.656z" fill="#ffdcd5"/></g><g id="XMLID_1101_"><path id="XMLID_603_" d="m196.77 102.165c13.382 0 24.23-10.848 24.23-24.23 0-12.872-10.039-23.394-22.713-24.178-2.877-20.674-20.616-36.591-42.082-36.591-10.097 0-19.366 3.528-26.658 9.409-6.57-9.982-17.869-16.575-30.712-16.575-19.476 0-35.404 15.153-36.66 34.312-5.479-4.265-12.36-6.813-19.841-6.813-17.858 0-32.334 14.476-32.334 32.333s14.476 32.333 32.333 32.333z" fill="#dfedff"/></g><g id="XMLID_1099_"><path id="XMLID_563_" d="m445.696 502c13.382 0 24.23-10.848 24.23-24.23 0-12.872-10.039-23.394-22.713-24.178-2.877-20.675-20.616-36.592-42.082-36.592-10.097 0-19.366 3.528-26.658 9.409-6.57-9.982-17.869-16.575-30.712-16.575-19.476 0-35.404 15.153-36.66 34.312-5.479-4.265-12.36-6.813-19.841-6.813-17.857 0-32.333 14.476-32.333 32.333s14.476 32.333 32.333 32.333h154.436z" fill="#dfedff"/></g><g id="XMLID_2069_"><path d="m380.417 211.68c8.086-8.086 21.195-8.086 29.281 0 0 0 38.016 38.016 38.016 38.016l3.953-3.953c14.541-14.541 14.541-38.116 0-52.656-14.541-14.541-38.116-14.541-52.656 0z" fill="#80b6ff"/></g><g id="XMLID_1536_"><path d="m329.244 197.847h-74.057c-14.784 0-26.769 11.985-26.769 26.769 0 14.784 11.985 26.769 26.769 26.769h114.324v-13.272c0-22.238-18.028-40.266-40.267-40.266z" fill="#80b6ff"/></g><g id="XMLID_1527_"><path d="m10 212.242c12.364 18.468 37.358 23.417 55.826 11.054l31.413-21.029-15.157-22.642c-3.992-5.964-12.063-7.562-18.027-3.569z" fill="#80b6ff"/></g><g id="XMLID_1521_"><g id="XMLID_1524_"><path id="XMLID_12_" d="m502 318.021c0 11.112-9.474 20.121-20.586 20.121-52.947 0-104.411-19.247-144.152-54.21-8.286-7.29-9.709-19.903-2.644-28.383 7.297-8.759 20.333-9.703 28.808-2.199 32.449 28.729 74.651 44.55 117.988 44.55 11.112 0 20.586 9.009 20.586 20.121z" fill="#ffdcd5"/></g></g><g id="XMLID_605_"><path id="XMLID_609_" d="m481.414 287.9c-17.944 0-35.575-2.835-52.292-8.274 4.003-2.159 7.716-4.912 11.023-8.219l18.593-18.593c18.416-18.417 18.416-48.382 0-66.799-8.921-8.921-20.782-13.834-33.399-13.834-12.616 0-24.478 4.913-33.399 13.834l-18.593 18.593c-1.249 1.249-2.41 2.561-3.5 3.919-9.151-12.524-23.938-20.681-40.602-20.681h-74.057c-20.274 0-36.77 16.495-36.77 36.769 0 7.931 2.532 15.277 6.819 21.29-15.996.781-31.472 6.361-44.274 15.983h-29.571l-61.001-87.826c-3.416-5.104-8.616-8.572-14.641-9.766-6.027-1.192-12.155.032-17.258 3.449l-54.054 36.187c-2.204 1.476-3.731 3.766-4.247 6.368-.515 2.602.024 5.301 1.5 7.505 7.465 11.152 18.826 18.729 31.991 21.335 3.286.651 6.586.972 9.862.972 5.029 0 9.999-.762 14.775-2.25l41.641 63.86c15.064 23.073 40.509 36.848 68.063 36.848h153.813c17.673 0 34.553-7.353 46.616-20.203 34.129 19.391 73 29.774 112.962 29.774 16.865 0 30.586-13.512 30.586-30.121s-13.721-30.12-30.586-30.12zm-86.356-72.284c2.859 0 5.548 1.113 7.569 3.135l30.945 30.945-7.57 7.57c-5.144 5.144-11.982 7.977-19.257 7.977s-14.113-2.833-19.257-7.976c-5.145-5.144-7.977-11.982-7.977-19.257s2.832-14.114 7.977-19.258c2.022-2.023 4.71-3.136 7.57-3.136zm49.537-15.458c5.145 5.144 7.978 11.983 7.978 19.257 0 5.781-1.795 11.285-5.113 15.884l-30.69-30.691c-2.595-2.595-5.575-4.664-8.808-6.162 4.876-4.055 10.955-6.265 17.376-6.265 7.274.001 14.113 2.833 19.257 7.977zm-189.407 7.689h74.057c14.159 0 26.073 9.774 29.362 22.928-21.396.318-42.856 2.445-63.872 6.38l-22.594 4.23h-16.953c-9.247 0-16.77-7.523-16.77-16.77s7.522-16.768 16.77-16.768zm-15.704 104.956-39.469-39.469c8.861-4.897 18.886-7.533 29.104-7.533h10.365zm20-48.7 20.849-3.903v58.372h-20.849zm-221.919-44.582c-4.53-.897-8.707-2.772-12.293-5.469l44.346-29.687c.853-.57 1.693-.557 2.247-.449.555.11 1.336.42 1.906 1.272l9.581 14.312-24.925 16.614c-6.321 3.62-13.645 4.836-20.862 3.407zm79.145 71.273-40.639-62.323 18.611-12.459 43.337 61.628c1.872 2.663 4.924 4.248 8.18 4.248h34.086l36.683 36.683h-48.944c-20.776 0-39.96-10.385-51.314-27.777zm205.126 27.777h-21.503v-62.094c7.919-1.438 15.899-2.613 23.916-3.513-7.224 12.232-4.776 28.637 6.408 38.475 6.522 5.738 13.34 11.071 20.414 15.986-8.005 7.13-18.405 11.146-29.235 11.146zm159.578 9.571c-50.791 0-99.639-18.367-137.547-51.718-4.335-3.813-5.037-10.307-1.566-14.473 1.774-2.13 4.269-3.418 7.021-3.627.263-.02.524-.03.785-.03 2.47 0 4.82.889 6.689 2.544 34.279 30.349 78.536 47.063 124.617 47.063 5.738 0 10.586 4.635 10.586 10.121s-4.847 10.12-10.585 10.12z"/><path id="XMLID_618_" d="m42.333 112.166h30.167c5.522 0 10-4.477 10-10s-4.478-10-10-10h-30.167c-12.314 0-22.333-10.019-22.333-22.334s10.019-22.333 22.333-22.333c5.009 0 9.745 1.626 13.697 4.704 2.922 2.274 6.862 2.749 10.238 1.232 3.378-1.516 5.642-4.774 5.884-8.468.918-14.001 12.639-24.967 26.683-24.967 9.024 0 17.383 4.513 22.359 12.073 1.55 2.355 4.023 3.947 6.81 4.382 2.781.432 5.626-.327 7.821-2.097 5.833-4.705 12.881-7.192 20.38-7.192 16.124 0 29.958 12.024 32.178 27.97.655 4.711 4.539 8.309 9.287 8.602 7.475.462 13.33 6.698 13.33 14.197 0 7.847-6.384 14.23-14.23 14.23h-34.27c-5.522 0-10 4.477-10 10s4.478 10 10 10h34.27c18.875 0 34.23-15.356 34.23-34.23 0-15.353-10.208-28.506-24.341-32.771-6.367-22.103-26.898-37.998-50.454-37.998-8.625 0-17.119 2.152-24.674 6.17-8.644-8.478-20.309-13.336-32.696-13.336-19.57 0-36.56 12.19-43.458 29.538-4.164-1.348-8.546-2.039-13.044-2.039-23.343 0-42.333 18.99-42.333 42.333s18.99 42.334 42.333 42.334z"/><path id="XMLID_621_" d="m455.585 444.998c-6.366-22.103-26.897-37.998-50.454-37.998-8.624 0-17.118 2.152-24.673 6.17-8.645-8.477-20.31-13.335-32.696-13.335-19.57 0-36.56 12.19-43.458 29.537-4.164-1.347-8.546-2.039-13.044-2.039-23.343 0-42.333 18.991-42.333 42.333 0 23.343 18.99 42.333 42.333 42.333h154.437c18.875 0 34.23-15.356 34.23-34.23 0-15.352-10.208-28.505-24.342-32.771zm-9.889 47.002h-154.436c-12.314 0-22.333-10.019-22.333-22.333s10.019-22.333 22.333-22.333c5.009 0 9.745 1.626 13.697 4.703 2.923 2.275 6.861 2.749 10.238 1.233 3.378-1.516 5.642-4.774 5.884-8.469.918-14 12.639-24.966 26.683-24.966 9.024 0 17.383 4.513 22.359 12.072 1.55 2.355 4.023 3.947 6.81 4.382 2.781.434 5.626-.327 7.821-2.097 5.833-4.705 12.88-7.192 20.379-7.192 16.125 0 29.959 12.024 32.178 27.97.655 4.711 4.539 8.309 9.287 8.603 7.476.462 13.331 6.698 13.331 14.197 0 7.846-6.384 14.23-14.231 14.23z"/><path id="XMLID_660_" d="m110.43 95.09c-1.86 1.86-2.93 4.44-2.93 7.08 0 2.63 1.069 5.21 2.93 7.07s4.44 2.93 7.07 2.93 5.21-1.07 7.069-2.93c1.86-1.87 2.931-4.44 2.931-7.07 0-2.64-1.07-5.21-2.931-7.08-1.859-1.86-4.439-2.92-7.069-2.92s-5.21 1.06-7.07 2.92z"/></g></g></svg>